#!OML:ASF F:\VICON\USERDATA\INSTALL\rory3\rory3.ASF
:FULLY-SPECIFIED
:DEGREES
46
root 0.466119318043952 17.71139660125132 -5.57877337669337 4.075902579051761 -5.286552028597462 -0.923811087728625
lfemur -4.563967226520832 1.6289400011271984 -24.966092368653804
ltibia 34.14811204717145
lfoot -3.026171043402604 -10.403996533281456
ltoes -7.088500894749425
rfemur -23.45765682759413 3.1380820724541327 24.81362123771927
rtibia 64.15116136144233
rfoot 8.726466966764754 -8.17881719949685
rtoes 12.703336042262832
lowerback 14.788811145991307 0.6205152896955923 -0.5366838767178761
upperback -0.6869316044634707 0.7591454653846047 -0.26351671071738414
thorax -9.29157364712845 0.5025311541691612 1.5521351851091214
lowerneck -18.317778817766555 -4.46482004541685 -2.488625950229109
upperneck 5.775179084600861 -6.1682325602368095 5.576647274815561
head 4.717842003428976 -2.642142966514457 1.5067795294619624
lclavicle -1.3367475555359899e-15 -2.7589793148673304e-15
lhumerus -40.44176231380147 -8.725568202909528 88.71903837207873
lradius 103.78033892893579
lwrist 28.940784117851464
lhand -24.034312482663914 4.453887518107042
lfingers 7.12502
lthumb 2.616914694439842 33.766665499201366
rclavicle -1.3367475554689316e-15 -2.7589793148185326e-15
rhumerus -50.11639600707105 12.14910301782958 -100.74933759866443
rradius 115.50850055290842
rwrist -22.038413728076062
rhand -17.84941350481234 36.52927090027793
rfingers 7.12502
rthumb 8.075016943414143 6.28440196218186
47
root 0.4677700491498046 17.66633714312946 -5.1689372724890035 3.9854643833566823 -5.345884733063494 -1.1560707087334
lfemur -4.006443044866158 1.6645798778948788 -24.419307890953817
ltibia 36.96842265103019
lfoot -3.7504916319197825 -9.490535537490569
ltoes -5.624646842537112
rfemur -25.320760236293793 2.748712916665532 25.001949387320337
rtibia 64.00651767272082
rfoot 7.299156443531464 -7.434917441956789
rtoes 14.935736273326977
lowerback 14.944292228109942 0.6040384413356216 -0.3310057490375824
upperback -0.6215540521456668 0.7563420059852675 -0.028893518522607797
thorax -9.43475617518126 0.5050824541830341 1.640835116661287
lowerneck -18.469139587157958 -4.422624327495829 -2.5094080985657694
upperneck 5.82339885760728 -6.092150376366656 5.601900812483413
head 4.759840504976136 -2.5991123142007697 1.5130947205560341
lclavicle -1.3367475555334083e-15 -2.75897931486527e-15
lhumerus -39.46862448713643 -8.926877323964 88.9138076692479
lradius 105.24785453541917
lwrist 29.14624104678298
lhand -24.31058737599334 4.592802271007127
lfingers 7.12502
lthumb 2.2686803548743533 33.83524870397058
rclavicle -1.3367475554696759e-15 -2.758979314819078e-15
rhumerus -50.6185832977604 11.90243135324834 -100.70656123931352
rradius 115.12338788723716
rwrist -22.019466172907798
rhand -17.933123941213235 36.39974508827953
rfingers 7.12502
rthumb 7.969068277205552 6.031453960832314
48
root 0.4672367771161573 17.586190648576913 -4.735728420901959 3.844472207097308 -5.508480187213832 -1.3633425762928686
lfemur -3.5594303206700886 1.8498600543233095 -23.866190257278568
ltibia 39.693011494447454
lfoot -4.080080830312195 -8.323582283124559
ltoes -4.893722422651871
rfemur -27.0272147528779 2.5326413661065033 25.196396364433994
rtibia 63.75660270042699
rfoot 5.861798512746514 -6.749412741303017
rtoes 14.433849652125588
lowerback 15.127009484424063 0.6193558004669275 -0.16483240089336837
upperback -0.5968551546522591 0.8221039110765413 0.23565103941784726
thorax -9.606284110348676 0.5427277455082948 1.7044273361681979
lowerneck -18.668223368371127 -4.3912563856973525 -2.5192845305246543
upperneck 5.900842002783122 -6.036317565347195 5.654838161329015
head 4.820649698025789 -2.557225963127947 1.5336055202133212
lclavicle -1.3367475555381808e-15 -2.758979314868621e-15
lhumerus -38.63164719915621 -9.120353259378476 89.02666848393143
lradius 106.73151115834962
lwrist 29.48919078355597
lhand -24.51237444173464 4.656612796320079
lfingers 7.12502
lthumb 1.9185856442724791 33.929714634098126
rclavicle -1.336747555472141e-15 -2.7589793148206117e-15
rhumerus -51.132986162191855 11.667961540970738 -100.6138855631692
rradius 114.81092645771865
rwrist -22.023596484699464
rhand -18.017702967180536 36.332891963500735
rfingers 7.12502
rthumb 7.904784888586058 5.948477227660998
49
root 0.46046133009357815 17.547368338132102 -4.399712471331981 3.8177228345375296 -5.687534202017979 -1.6453192865424726
lfemur -3.3322386961541923 2.0537809174028028 -23.162788832580638
ltibia 42.35551792048203
lfoot -4.31517773876595 -7.486360848825084
ltoes -5.119110897779992
rfemur -28.5005096650407 2.442145537602961 25.569779025348446
rtibia 63.1002491618855
rfoot 4.458460190350579 -6.350967959832433
rtoes 13.499694272329615
lowerback 15.268503143762073 0.6439457535140913 0.07040664981011457
upperback -0.5657621181256935 0.8956402818194925 0.5167696081867784
thorax -9.766127698446335 0.5811690062144188 1.7467615138771402
lowerneck -18.96646160240488 -4.3377122141536395 -2.5306215568817736
upperneck 5.9593020423581535 -5.9664403419653835 5.709120180303766
head 4.931995188650243 -2.5020776190954743 1.5469646357415117
lclavicle -1.3367475555433358e-15 -2.7589793148719354e-15
lhumerus -37.96410785674492 -9.169203113329555 89.0340578312983
lradius 108.32810270275222
lwrist 29.85387957995419
lhand -24.506346333850797 4.931541554883918
lfingers 7.12502
lthumb 1.7283848111284434 33.9821490617809
rclavicle -1.3367475554759359e-15 -2.758979314822827e-15
rhumerus -51.64514705554645 11.503607325521708 -100.53642235740618
rradius 114.55343681321385
rwrist -21.991829462837476
rhand -18.135634589118848 36.34461291604188
rfingers 7.12502
rthumb 7.870345967190461 6.057186026909269
